<?xml version="1.0" encoding="UTF-8"?>
<!-- Created with Inkscape (http://www.inkscape.org/) -->
<svg width="210mm" height="210mm" version="1.1" viewBox="0 0 210 210" xmlns="http://www.w3.org/2000/svg" xmlns:cc="http://creativecommons.org/ns#" xmlns:dc="http://purl.org/dc/elements/1.1/" xmlns:rdf="http://www.w3.org/1999/02/22-rdf-syntax-ns#">
 <metadata>
  <rdf:RDF>
   <cc:Work rdf:about="">
    <dc:format>image/svg+xml</dc:format>
    <dc:type rdf:resource="http://purl.org/dc/dcmitype/StillImage"/>
    <dc:title/>
   </cc:Work>
  </rdf:RDF>
 </metadata>
 <g transform="translate(0,-87)">
  <g transform="matrix(.26432 0 0 .26432 -401.2 -177.79)">
   <path d="m-354.64 4818.5v0.11c1.5 55.5 2 111.32 11.32 166.47 9.92 58.35 24.1 115.25 51.15 168.21q54.86 107.52 150.21 181.66c45.52 35.5 95.25 63.69 150.3 81.47 80.26 25.89 163.07 35.81 247.09 36.3 52.42 0.33 104.81 1.64 157.25 1.42 380.82-1.6 761.65 2.75 1142.5-2.35 50.53-0.68 100.24-6.85 149.84-15.92 95.06-17.4 179.07-58 250.95-122.09 83.77-74.71 140.29-166.16 165.81-276.52 16.69-72.14 20.87-145.32 21.58-218.77v-14.65c0-5.68-2.16-1247.9-2.36-1264.3-0.55-45.1-3.88-89.87-12.33-134.25-10.29-54.08-24.82-106.78-50.71-155.7-27.35-51.7-61.6-98.17-104-138.79-64.89-62.23-139.78-106.23-227-129.51-78.74-21-159.07-25.68-240-25.6a2.45 2.45 0 0 1-0.45-1.24h-1224.7c0 0.42 0 0.83-0.07 1.24-45.93 0.84-91.92 0.49-137.61 6.16-50.05 6.22-99.63 15.59-147 33.09-74.62 27.6-139.46 70.59-194.84 128-62.75 65-107 140.22-130.44 227.79-20.95 78.13-25.51 157.81-25.62 238.06" fill="#fff"/>
   <path d="m0 0.79h2498v2498h-2498z" fill="none"/>
   <path d="m1938.1 1688.1-157.24-2.8758c-50.909-1.002-101.95 0.9984-151.86-9.3832-75.926-15.511-81.305-91.564-86.934-155.36-7.7555-89.687-4.7531-181 9.8823-269.94 8.2623-49.904 40.778-79.681 91.061-82.922 169.74-11.76 340.62-10.366 509.99-4.8797 17.887 0.5031 35.898 3.252 53.536 6.381 87.064 15.261 89.188 101.45 94.831 174 5.6284 73.3 3.2518 146.98-7.5059 219.78-8.6308 60.277-25.144 110.83-94.831 115.71-87.314 6.3811-172.62 11.518-260.18 9.8825 0-0.3877-0.4992-0.3877-0.7488-0.3877zm-92.439-152.61c65.798-37.779 130.34-74.928 195.76-112.45-65.921-37.779-130.34-74.928-195.76-112.45z" stroke-width=".38393"/>
  </g>
 </g>
</svg>
