<svg width="24mm" height="24mm" version="1.1" viewBox="0 0 24 24" xmlns="http://www.w3.org/2000/svg"><g transform="translate(-54.69 -148.16)"><g transform="matrix(.15745 .05587 -.063615 .16226 64.966 130.41)"><path d="m123.64 193.35c-0.67648 5.6625-0.92789 13.94-7.4905 17.081-6.5626 3.1411-25.801 4.3291-36.838 4.0135-13.446-0.38454-20.452-0.57903-34.275-4.143-1.6047-1.007 1.8985-11.361-1.7845-19.007-1.1625-8e-3 0.10858 12.267-3.4448 16.704-1.0776 1.3455-5.4692-2.1006-5.4692-2.1006s1.4972-3.5078 1.6817-12.466 0.49924-19.742 0.49924-19.742l88.599-0.59644s0.20739 3.4368 0.0193 5.9581-1.4967 14.299-1.4967 14.299zm-70.72-57.264c3.0299 5e-3 17.91 0.27156 17.91 0.27156l1.069-38.399s-0.32195-6.9455 9.8608-7.3442c8.7756-0.0011 9.3832 7.3408 9.3832 7.3408l3.47e-4 38.131s14.034 0.0226 18.245 0.0475c8.5693 0.43565 15.753 8.356 15.348 16.831-0.0753 6.3067-0.13314 16.464-0.13314 16.464s-8.4026 0.54689-16.786 0c-18.55-0.0315-37.104 0.0639-55.652-0.0473-8.5693-0.43565-15.875 0-15.875 0s-0.1589-12.626 0.13314-18.924c0.87468-8.0394 8.3502-14.523 16.498-14.371z" fill-rule="evenodd" style="paint-order:markers stroke fill"/></g></g></svg>
