<svg width="24mm" height="24mm" version="1.1" viewBox="0 0 24 24" xmlns="http://www.w3.org/2000/svg"><g transform="translate(-54.69 -148.16)"><path d="m62.025 169.84c-0.24698-1.2285-1.2702-1.6644-2.1173-0.90176-0.77714 0.69966-1.1528 0.6739-1.8833-0.12903-0.56853-0.62496-0.57052-0.71332-0.03447-1.5272 0.74751-1.1349 0.41817-2.0488-0.82767-2.2967-0.8493-0.16901-1.0032-0.3568-1.0032-1.2243 0-0.86751 0.15388-1.0553 1.0032-1.2243 1.2506-0.24882 1.5746-1.1627 0.81901-2.3099-0.5536-0.84051-0.54823-0.90628 0.1291-1.5801 0.67734-0.67385 0.74344-0.67918 1.5883-0.12855 1.1571 0.75421 2.0998 0.42162 2.3781-0.83903 0.19779-0.89586 0.34548-0.99991 1.2899-0.90872 0.8762 0.0845 1.0854 0.26503 1.1719 1.0109 0.1344 1.1587 1.1184 1.4844 2.252 0.74549 0.81812-0.53327 0.90695-0.53128 1.5352 0.0342 0.80719 0.7267 0.83307 1.1004 0.12978 1.8735-0.81176 0.89235-0.32627 1.8726 1.0551 2.1304 1.0101 0.1884 1.1705 0.34956 1.1705 1.1752 0 0.96272-0.49387 1.3646-1.6769 1.3646-0.8443 0-1.0941 1.2626-0.4448 2.2484 0.50514 0.76695 0.49451 0.86359-0.16736 1.522-0.66188 0.65846-0.75903 0.66904-1.53 0.16638-1.1223-0.73156-2.1953-0.40075-2.3254 0.71701-0.08527 0.73279-0.29786 0.90834-1.2053 0.99531-0.9893 0.0948-1.1226 2e-3 -1.3067-0.91401zm2.7615-4.552c0.90374-0.89907 1.0224-1.5478 0.4707-2.5733-1.2428-2.3101-4.9797-0.5932-4.0431 1.8576 0.62911 1.6461 2.3005 1.981 3.5724 0.71569zm5.4368-5.4614c-0.49028-0.12544-0.58469-0.37048-0.43322-1.1239 0.21711-1.0799-0.22357-1.5247-1.3652-1.378-0.46283 0.0594-0.87375-0.16016-1.1054-0.59066-0.30253-0.56236-0.24609-0.76147 0.31454-1.1098 0.86054-0.53461 0.87597-1.3875 0.03591-1.9857-0.90977-0.64784-0.36716-2.1252 0.6613-1.8004 0.95255 0.30077 1.7148-0.40008 1.4739-1.3551-0.28442-1.1274 1.156-1.5535 1.8312-0.5418 0.60738 0.91003 1.1975 0.91003 1.8049 0 0.35427-0.53081 0.67092-0.65573 1.2215-0.48188 0.58802 0.18577 0.72599 0.45815 0.66056 1.3045-0.07754 1.0031-0.01341 1.0696 1.0286 1.0658 1.4919-5e-3 1.8755 1.1964 0.69847 2.1884l-0.79664 0.67143 0.78636 0.66312c1.1044 0.93132 0.83312 1.8166-0.62133 2.0279-1.0805 0.15704-1.1715 0.25828-1.0977 1.2218 0.06425 0.83848-0.07211 1.0918-0.67545 1.255-0.53288 0.14411-0.8927 7e-3 -1.2193-0.46579-0.5908-0.85466-1.2731-0.85402-1.8103 2e-3 -0.232 0.36958-0.49925 0.65441-0.59388 0.63299-0.09463-0.0216-0.45416-0.11132-0.79896-0.19942zm3.954-5.15c-0.01221-0.67241-0.22972-0.97115-0.52394-1.2638-0.64482-0.64149-1.9803-0.36498-2.4463 0.34353-0.46592 0.70851-0.26389 1.4524 0.14972 1.9411s1.0216 0.77868 1.9496 0.36376c0.61414-0.268 0.80187-0.75828 0.87088-1.3846z"/></g></svg>
