<svg width="24.2mm" height="24.2mm" version="1.1" viewBox="0 0 24.2 24.2" xmlns="http://www.w3.org/2000/svg"><g transform="translate(-8.9714 -51.971)"><g transform="translate(-214.36 -85.367)"><g transform="translate(0 -6.8036)"><rect x="223.44" y="144.24" width="24" height="24" fill="none" opacity=".949" style="paint-order:markers stroke fill"/><g transform="matrix(.14516 0 0 .14516 330.86 115.64)"><path d="m-729.05 209.24c-5.0558 4.877-3.3314 13.234 2.016 17.12 18.098 18.098 36.197 36.197 54.295 54.295-18.932 18.97-37.942 37.866-56.825 56.882-5.7979 6.2511-0.96577 17.624 7.5586 17.789 7.2903 0.50323 11.134-6.5463 15.983-10.719 16.206-16.206 32.412-32.412 48.618-48.618 18.97 18.932 37.866 37.942 56.882 56.825 6.2516 5.7974 17.624 0.9644 17.788-7.56 0.50263-7.2896-6.5461-11.133-10.719-15.982l-48.618-48.618c18.932-18.97 37.941-37.866 56.825-56.882 5.7984-6.2507 0.96709-17.623-7.5573-17.79-7.2909-0.5038-11.135 6.5466-15.985 10.72-16.206 16.206-32.412 32.412-48.618 48.618-18.969-18.933-37.867-37.94-56.881-56.826-4.1876-3.6515-10.964-3.3098-14.764 0.74518z" color="#000000" color-rendering="auto" dominant-baseline="auto" image-rendering="auto" shape-rendering="auto" solid-color="#000000" style="font-feature-settings:normal;font-variant-alternates:normal;font-variant-caps:normal;font-variant-ligatures:normal;font-variant-numeric:normal;font-variant-position:normal;isolation:auto;mix-blend-mode:normal;shape-padding:0;text-decoration-color:#000000;text-decoration-line:none;text-decoration-style:solid;text-indent:0;text-orientation:mixed;text-transform:none;white-space:normal"/></g></g></g></g></svg>
