<?xml version="1.0" encoding="UTF-8"?>
<svg width="24.2mm" height="24.2mm" version="1.1" viewBox="0 0 24.2 24.2" xmlns="http://www.w3.org/2000/svg">
 <g transform="translate(-8.9714 -51.971)">
  <g transform="translate(-214.36 -85.367)">
   <g transform="translate(0 -6.8036)">
    <path d="m245 145.05c-0.1265-7.2e-4 -0.7609 0.50369-1.0041 0.69667-0.5159 0.40934-0.64178 0.53913-0.83546 0.72481-1.3175 1.2275-2.6572 2.4872-3.871 3.882-1.5538 1.7856-3.1352 3.6227-4.446 5.5858-1.2681 1.8991-2.4033 3.8559-3.3687 5.8213-1.8475-3.5736-3.7679-5.8419-3.7679-5.8419-1.0539-1.3658-1.2159-1.0374-2.1415-0.0163-0.38127 0.57908-0.80886 1.1307-0.17158 2.1243 0 0 1.2177 1.3435 2.5745 3.6383 0.71045 1.2017 1.459 2.6642 2.0909 4.3313 0.49273 1.2985 2.3256 1.3099 2.8344 0.0176 0.97145-2.4705 2.3051-5.0182 3.8921-7.4949 1.27-1.982 2.638-3.983 4.1767-5.7983 1.2748-1.504 2.494-2.989 3.8833-4.2833 0.14563-0.13187 0.73977-0.74109 0.96768-1.0058 0.2303-0.26754 0.46703-0.60216 0.69714-0.86702-1.5839 0.85622-1.6939 0.72041-1.6939 0.72041s0.34095-0.79701 0.67072-1.6726c-1.677 1.369-1.4459 1.2315-1.7478 1.312 0 0 0.7701-1.0482 1.2604-1.8743z" color="#000000" color-rendering="auto" dominant-baseline="auto" image-rendering="auto" shape-rendering="auto" solid-color="#000000" style="font-feature-settings:normal;font-variant-alternates:normal;font-variant-caps:normal;font-variant-ligatures:normal;font-variant-numeric:normal;font-variant-position:normal;isolation:auto;mix-blend-mode:normal;paint-order:markers stroke fill;shape-padding:0;text-decoration-color:#000000;text-decoration-line:none;text-decoration-style:solid;text-indent:0;text-orientation:mixed;text-transform:none;white-space:normal"/>
    <rect x="223.44" y="144.24" width="24" height="24" fill="none" opacity=".949" style="paint-order:markers stroke fill"/>
   </g>
  </g>
 </g>
</svg>
