<svg width="64mm" height="64mm" version="1.1" viewBox="0 0 64 64" xmlns="http://www.w3.org/2000/svg"><g transform="translate(0,-233)"><g transform="translate(-520.59 171.08)"><g transform="matrix(.26432 0 0 .26432 -401.2 -177.79)"><path d="m0 0.79h2498v2498h-2498z" fill="none"/><g transform="matrix(.4578 0 0 .4578 3499.6 893.05)"><g transform="matrix(.54234 0 0 .54234 87.066 -362.34)"><path d="m76.979 1617.9c-110.76-5.5924-206.21-104.07-204.74-215.65-2.974-138.72-6.2604-277.93 2.6877-416.4 12.937-106.92 117.24-190.2 223.99-185 135.06-2.5169 270.55-5.5707 405.39 3.0999 105.82 13.109 191.62 114.59 186.53 221.41 2.4036 135.96 5.3892 272.33-3.153 408.08-10.547 83.943-80.927 154.85-160.1 178.3-139.77 15.636-281.04 8.8984-421.43 7.7164-9.7346-0.3581-19.472-0.7437-29.182-1.5531zm422.23-74.993c72.759-12.269 125.42-84.131 119.03-157.02 1.7262-129.01 3.9216-258.27-1.6373-387.17-9.5988-80.14-90.323-134.21-168.14-125.92-127.78-0.46113-255.88-4.3637-383.48 2.9393-79.174 12.371-129.96 93.055-121.47 170.03 0.72831 128.48-5.3946 257.46 4.5048 385.63 13.271 66.922 80.238 118.38 148.59 114 133.93 5.934 268.79 5.134 402.61-2.4862z" stroke-width="3.9605"/><path d="m534.27 988.72c2.5342 43.641-63.914 59.614-81.455 19.537-21.682-37.136 28.64-81.411 62.704-55.084 11.608 7.8249 18.847 21.55 18.751 35.548z" fill-rule="evenodd" style="paint-order:markers stroke fill"/><path d="m437.72 1210.8c3.7366 98.411-103.78 177.51-196.6 144.97-95.057-25.531-139.02-151.57-80.401-230.66 52.484-83.299 185.87-88.023 244.12-8.645 21.181 26.551 32.965 60.372 32.881 94.331zm72.572-0.2844c5.5237 145.48-153.41 262.4-290.62 214.31-140.52-37.742-205.5-224.06-118.85-340.98 77.584-123.14 274.77-130.12 360.87-12.78 31.31 39.249 48.731 89.245 48.606 139.45z" fill-rule="evenodd" style="paint-order:markers stroke fill"/></g><rect x="-22.331" y="37.859" width="528.9" height="528.9" fill="none" style="paint-order:markers stroke fill"/></g></g></g></g></svg>
