<svg width="64mm" height="64mm" version="1.1" viewBox="0 0 64 64" xmlns="http://www.w3.org/2000/svg"><g transform="translate(0,-233)"><g transform="translate(-520.59 171.08)"><g transform="matrix(.26432 0 0 .26432 -401.2 -177.79)"><path d="m-354.64 4818.5v0.11c1.5 55.5 2 111.32 11.32 166.47 9.92 58.35 24.1 115.25 51.15 168.21q54.86 107.52 150.21 181.66c45.52 35.5 95.25 63.69 150.3 81.47 80.26 25.89 163.07 35.81 247.09 36.3 52.42 0.33 104.81 1.64 157.25 1.42 380.82-1.6 761.65 2.75 1142.5-2.35 50.53-0.68 100.24-6.85 149.84-15.92 95.06-17.4 179.07-58 250.95-122.09 83.77-74.71 140.29-166.16 165.81-276.52 16.69-72.14 20.87-145.32 21.58-218.77v-14.65c0-5.68-2.16-1247.9-2.36-1264.3-0.55-45.1-3.88-89.87-12.33-134.25-10.29-54.08-24.82-106.78-50.71-155.7-27.35-51.7-61.6-98.17-104-138.79-64.89-62.23-139.78-106.23-227-129.51-78.74-21-159.07-25.68-240-25.6a2.45 2.45 0 0 1-0.45-1.24h-1224.7c0 0.42 0 0.83-0.07 1.24-45.93 0.84-91.92 0.49-137.61 6.16-50.05 6.22-99.63 15.59-147 33.09-74.62 27.6-139.46 70.59-194.84 128-62.75 65-107 140.22-130.44 227.79-20.95 78.13-25.51 157.81-25.62 238.06" fill="#fff"/><path d="m0 0.79h2498v2498h-2498z" fill="none"/><rect x="3488.8" y="907.35" width="242.13" height="242.13" fill="none" style="paint-order:markers stroke fill"/><path d="m3614.3 1112.9-49.019-0.8966c-15.871-0.3124-31.782 0.3114-47.342-2.9251-23.67-4.8356-25.346-28.545-27.101-48.433-2.4177-27.959-1.4817-56.426 3.0808-84.152 2.5757-15.557 12.712-24.84 28.388-25.851 52.916-3.6661 106.19-3.2315 158.99-1.5212 5.5762 0.15689 11.191 1.0138 16.69 1.9893 27.142 4.7576 27.804 31.626 29.563 54.244 1.7546 22.851 1.0137 45.82-2.3399 68.515-2.6907 18.791-7.8386 34.551-29.563 36.072-27.22 1.9892-53.814 3.5907-81.11 3.0809 0-0.1209-0.1556-0.1209-0.2336-0.1209zm-28.817-47.575c20.512-11.777 40.633-23.358 61.027-35.056-20.55-11.777-40.633-23.358-61.027-35.056z" stroke-width=".11969"/></g></g></g></svg>
